Moderustic-SemiBold.ufo
<glyph name="slash" format="2">
  <advance width="315"/>
  <unicode hex="002F"/>
  <outline>
    <contour>
      <point x="-40" y="0" type="line"/>
      <point x="-10" y="0" type="line"/>
      <point x="362" y="700" type="line"/>
      <point x="332" y="700" type="line"/>
    </contour>
  </outline>
</glyph>
<glyph name="one" format="2">
  <advance width="456"/>
  <unicode hex="0031"/>
  <outline>
    <contour>
      <point x="19" y="392" type="line"/>
      <point x="147" y="423"/>
      <point x="181" y="453"/>
      <point x="233" y="507" type="curve"/>
      <point x="233" y="0" type="line"/>
      <point x="379" y="0" type="line"/>
      <point x="379" y="700" type="line"/>
      <point x="256" y="700" type="line"/>
      <point x="199" y="608"/>
      <point x="125" y="535"/>
      <point x="19" y="515" type="curve"/>
    </contour>
  </outline>
</glyph>
<glyph name="seven" format="2">
  <advance width="565"/>
  <unicode hex="0037"/>
  <outline>
    <contour>
      <point x="120" y="0" type="line"/>
      <point x="277" y="0" type="line"/>
      <point x="540" y="620" type="line"/>
      <point x="540" y="700" type="line"/>
      <point x="34" y="700" type="line"/>
      <point x="34" y="580" type="line"/>
      <point x="366" y="580" type="line"/>
    </contour>
  </outline>
</glyph>
<glyph name="V" format="2">
  <advance width="655"/>
  <unicode hex="0056"/>
  <anchor x="328" y="719" name="top"/>
  <anchor x="328" y="-20" name="bottom"/>
  <outline>
    <contour>
      <point x="411" y="0" type="line"/>
      <point x="638" y="700" type="line"/>
      <point x="485" y="700" type="line"/>
      <point x="287" y="0" type="line"/>
    </contour>
    <contour>
      <point x="368" y="0" type="line"/>
      <point x="170" y="700" type="line"/>
      <point x="17" y="700" type="line"/>
      <point x="244" y="0" type="line"/>
    </contour>
  </outline>
</glyph>
<glyph name="Y" format="2">
  <advance width="662"/>
  <unicode hex="0059"/>
  <anchor x="331" y="719" name="top"/>
  <anchor x="331" y="-20" name="bottom"/>
  <anchor x="-85" y="500" name="topgr"/>
  <outline>
    <contour>
      <point x="258" y="0" type="line" name="ab01"/>
      <point x="404" y="0" type="line"/>
      <point x="404" y="285" type="line" name="iv04"/>
      <point x="644" y="700" type="line" name="at01"/>
      <point x="476" y="700" type="line"/>
      <point x="331" y="427" type="line" name="iv05"/>
      <point x="186" y="700" type="line" name="at02"/>
      <point x="18" y="700" type="line"/>
      <point x="258" y="285" type="line" name="iv01"/>
    </contour>
  </outline>
</glyph>
<glyph name="bracketleft" format="2">
  <advance width="420"/>
  <unicode hex="005B"/>
  <outline>
    <contour>
      <point x="377" y="778" type="line"/>
      <point x="77" y="778" type="line"/>
      <point x="77" y="-217" type="line"/>
      <point x="377" y="-217" type="line"/>
      <point x="377" y="-127" type="line"/>
      <point x="212" y="-127" type="line"/>
      <point x="212" y="688" type="line"/>
      <point x="377" y="688" type="line"/>
    </contour>
  </outline>
</glyph>
<glyph name="a" format="2">
  <advance width="645"/>
  <unicode hex="0061"/>
  <anchor x="322" y="520" name="top"/>
  <anchor x="322" y="-20" name="bottom"/>
  <anchor x="567" y="-1" name="ogonek"/>
  <outline>
    <contour>
      <point x="427" y="0" type="line" name="ab01"/>
      <point x="572" y="0" type="line"/>
      <point x="572" y="500" type="line" name="av01"/>
      <point x="427" y="500" type="line"/>
    </contour>
    <contour>
      <point x="459" y="248" type="curve" smooth="yes"/>
      <point x="459" y="423"/>
      <point x="389" y="520"/>
      <point x="261" y="520" type="curve" smooth="yes" name="at01"/>
      <point x="126" y="520"/>
      <point x="50" y="411"/>
      <point x="50" y="259" type="curve" smooth="yes"/>
      <point x="50" y="99"/>
      <point x="135" y="-20"/>
      <point x="270" y="-20" type="curve" smooth="yes" name="dv01"/>
      <point x="394" y="-20"/>
      <point x="459" y="79"/>
    </contour>
    <contour>
      <point x="195" y="254.514" type="curve" smooth="yes"/>
      <point x="195" y="353.824"/>
      <point x="238" y="410"/>
      <point x="308" y="410" type="curve" smooth="yes" name="sv01"/>
      <point x="382" y="410"/>
      <point x="427" y="348.809"/>
      <point x="427" y="250.502" type="curve" smooth="yes"/>
      <point x="427" y="153.197"/>
      <point x="383" y="90"/>
      <point x="311" y="90" type="curve" smooth="yes" name="dv02"/>
      <point x="240" y="90"/>
      <point x="195" y="152.194"/>
    </contour>
  </outline>
</glyph>
<glyph name="k" format="2">
  <advance width="594"/>
  <unicode hex="006B"/>
  <anchor x="297" y="-20" name="bottom"/>
  <anchor x="142" y="750" name="top"/>
  <outline>
    <contour>
      <point x="214" y="0" type="line" name="ab02"/>
      <point x="214" y="750" type="line" name="ab01"/>
      <point x="69" y="750" type="line"/>
      <point x="69" y="0" type="line" name="sv03"/>
    </contour>
    <contour>
      <point x="326" y="317" type="line" name="iv02"/>
      <point x="109" y="317" type="line"/>
      <point x="110" y="207" type="line"/>
      <point x="317" y="207" type="line" name="iv01"/>
      <point x="409" y="0" type="line" name="ab02"/>
      <point x="574" y="0" type="line"/>
      <point x="433" y="265" type="line"/>
      <point x="558" y="500" type="line" name="av02"/>
      <point x="408" y="500" type="line"/>
    </contour>
  </outline>
</glyph>
<glyph name="o" format="2">
  <advance width="616"/>
  <unicode hex="006F"/>
  <anchor x="417" y="-3" name="ogonek"/>
  <anchor x="308" y="520" name="top"/>
  <anchor x="308" y="-20" name="bottom"/>
  <anchor x="308" y="520" name="topgr"/>
  <outline>
    <contour>
      <point x="49" y="255" type="curve" smooth="yes"/>
      <point x="49" y="84"/>
      <point x="147" y="-20"/>
      <point x="308" y="-20" type="curve" smooth="yes" name="dv01"/>
      <point x="482" y="-20"/>
      <point x="567" y="84"/>
      <point x="567" y="255" type="curve" smooth="yes"/>
      <point x="567" y="416"/>
      <point x="481" y="520"/>
      <point x="308" y="520" type="curve" smooth="yes" name="at01"/>
      <point x="146" y="520"/>
      <point x="49" y="416"/>
    </contour>
    <contour>
      <point x="419" y="253.019" type="curve" smooth="yes"/>
      <point x="419" y="145.346"/>
      <point x="387" y="90"/>
      <point x="308" y="90" type="curve" smooth="yes" name="dv02"/>
      <point x="236" y="90"/>
      <point x="197" y="146.352"/>
      <point x="197" y="255.031" type="curve" smooth="yes"/>
      <point x="197" y="359.686"/>
      <point x="233" y="410"/>
      <point x="308" y="410" type="curve" smooth="yes" name="sv01"/>
      <point x="384" y="410"/>
      <point x="419" y="357.673"/>
    </contour>
  </outline>
</glyph>
<glyph name="eth" format="2">
  <advance width="636"/>
  <unicode hex="00F0"/>
  <outline>
    <contour>
      <point x="142" y="629" type="line"/>
      <point x="183" y="612"/>
      <point x="219" y="595"/>
      <point x="253" y="576" type="curve"/>
      <point x="149" y="538" type="line"/>
      <point x="167" y="493" type="line"/>
      <point x="308" y="550" type="line"/>
      <point x="356" y="517"/>
      <point x="397" y="480"/>
      <point x="432" y="439" type="curve"/>
      <point x="417" y="451"/>
      <point x="378" y="471"/>
      <point x="308" y="471" type="curve" smooth="yes"/>
      <point x="153" y="471"/>
      <point x="49" y="374"/>
      <point x="49" y="231" type="curve" smooth="yes"/>
      <point x="49" y="85"/>
      <point x="157" y="-20"/>
      <point x="317" y="-20" type="curve" smooth="yes"/>
      <point x="476" y="-20"/>
      <point x="587" y="83"/>
      <point x="587" y="248" type="curve" smooth="yes"/>
      <point x="587" y="371"/>
      <point x="525" y="496"/>
      <point x="404" y="590" type="curve"/>
      <point x="506" y="632" type="line"/>
      <point x="488" y="677" type="line"/>
      <point x="369" y="627" type="line"/>
      <point x="317" y="660"/>
      <point x="248" y="693"/>
      <point x="184" y="720" type="curve"/>
    </contour>
    <contour>
      <point x="317" y="361" type="curve" smooth="yes"/>
      <point x="391" y="361"/>
      <point x="442" y="314"/>
      <point x="442" y="231" type="curve" smooth="yes"/>
      <point x="442" y="150"/>
      <point x="394" y="91"/>
      <point x="315" y="91" type="curve" smooth="yes"/>
      <point x="243" y="91"/>
      <point x="194" y="139"/>
      <point x="194" y="225" type="curve" smooth="yes"/>
      <point x="194" y="309"/>
      <point x="240" y="361"/>
    </contour>
  </outline>
</glyph>
<glyph name="kgreenlandic" format="2">
  <advance width="594"/>
  <unicode hex="0138"/>
  <outline>
    <contour>
      <point x="69" y="0" type="line"/>
      <point x="69" y="500" type="line"/>
      <point x="214" y="500" type="line"/>
      <point x="214" y="0" type="line"/>
    </contour>
    <contour>
      <point x="336" y="316" type="line" name="iv02"/>
      <point x="418" y="500" type="line"/>
      <point x="558" y="500" type="line" name="av02"/>
      <point x="433" y="265" type="line"/>
      <point x="574" y="0" type="line"/>
      <point x="409" y="0" type="line" name="ab02"/>
      <point x="317" y="207" type="line" name="iv01"/>
      <point x="110" y="207" type="line"/>
      <point x="109" y="316" type="line"/>
    </contour>
  </outline>
</glyph>
<glyph name="OE" format="2">
  <advance width="968"/>
  <unicode hex="0152"/>
  <anchor x="484" y="719" name="top"/>
  <anchor x="484" y="-20" name="bottom"/>
  <outline>
    <contour>
      <point x="414.339" y="120" type="line" smooth="yes"/>
      <point x="283.726" y="120"/>
      <point x="191" y="209"/>
      <point x="191" y="349" type="curve" smooth="yes"/>
      <point x="191" y="484"/>
      <point x="277.743" y="580"/>
      <point x="414.339" y="580" type="curve" smooth="yes"/>
      <point x="484.334" y="580" type="line" name="sv02"/>
      <point x="484.334" y="120" type="line" name="sv01"/>
    </contour>
    <contour>
      <point x="624.334" y="700" type="line"/>
      <point x="400" y="700" type="line" smooth="yes" name="at01"/>
      <point x="188" y="700"/>
      <point x="43" y="558"/>
      <point x="43" y="350" type="curve" smooth="yes"/>
      <point x="43" y="141"/>
      <point x="187" y="0"/>
      <point x="400" y="0" type="curve" smooth="yes"/>
      <point x="624.334" y="0" type="line" name="ab01"/>
    </contour>
    <contour>
      <point x="922.334" y="0" type="line" name="ab01"/>
      <point x="922.334" y="120" type="line" name="sv01"/>
      <point x="631.334" y="120" type="line"/>
      <point x="631.334" y="305" type="line" name="dv01"/>
      <point x="882.334" y="305" type="line"/>
      <point x="882.334" y="425" type="line"/>
      <point x="631.334" y="425" type="line" name="dv02"/>
      <point x="631.334" y="580" type="line" name="sv02"/>
      <point x="907.334" y="580" type="line"/>
      <point x="907.334" y="700" type="line" name="at01"/>
      <point x="490.334" y="700" type="line"/>
      <point x="490.334" y="0" type="line"/>
    </contour>
  </outline>
</glyph>
<glyph name="oe" format="2">
  <advance width="957"/>
  <unicode hex="0153"/>
  <anchor x="479" y="520" name="top"/>
  <anchor x="479" y="-20" name="bottom"/>
  <outline>
    <contour>
      <point x="49.53" y="255" type="curve" smooth="yes"/>
      <point x="49.53" y="84"/>
      <point x="144.59" y="-20"/>
      <point x="300.76" y="-20" type="curve" smooth="yes" name="dv01"/>
      <point x="469.54" y="-20"/>
      <point x="551.99" y="84"/>
      <point x="551.99" y="255" type="curve" smooth="yes"/>
      <point x="551.99" y="416"/>
      <point x="468.57" y="520"/>
      <point x="300.76" y="520" type="curve" smooth="yes" name="at01"/>
      <point x="143.62" y="520"/>
      <point x="49.53" y="416"/>
    </contour>
    <contour>
      <point x="408.43" y="253.019" type="curve" smooth="yes"/>
      <point x="408.43" y="145.346"/>
      <point x="377.39" y="90"/>
      <point x="300.76" y="90" type="curve" smooth="yes" name="dv02"/>
      <point x="230.92" y="90"/>
      <point x="193.09" y="146.352"/>
      <point x="193.09" y="255.031" type="curve" smooth="yes"/>
      <point x="193.09" y="359.686"/>
      <point x="228.01" y="410"/>
      <point x="300.76" y="410" type="curve" smooth="yes" name="sv01"/>
      <point x="374.48" y="410"/>
      <point x="408.43" y="357.673"/>
    </contour>
    <contour>
      <point x="555.42" y="322" type="line" name="sv02"/>
      <point x="564.15" y="376.621"/>
      <point x="608.364" y="410"/>
      <point x="668.919" y="410" type="curve" smooth="yes" name="sv01"/>
      <point x="728.512" y="410"/>
      <point x="766.959" y="376.621"/>
      <point x="775.61" y="322" type="curve" name="dv04"/>
    </contour>
    <contour>
      <point x="683.481" y="90" type="curve" smooth="yes" name="sv01"/>
      <point x="597.786" y="90"/>
      <point x="555.42" y="134.336"/>
      <point x="555.42" y="222" type="curve" name="sv04"/>
      <point x="919.17" y="222" type="line" name="dv03"/>
      <point x="919.17" y="419"/>
      <point x="828.96" y="520"/>
      <point x="670.85" y="520" type="curve" smooth="yes" name="at01"/>
      <point x="515.65" y="520"/>
      <point x="411.86" y="422"/>
      <point x="411.86" y="251" type="curve" smooth="yes" name="sv03"/>
      <point x="411.86" y="85"/>
      <point x="508.86" y="-20"/>
      <point x="677.64" y="-20" type="curve" smooth="yes" name="at01"/>
      <point x="767.85" y="-20"/>
      <point x="844.48" y="10"/>
      <point x="892.98" y="67" type="curve"/>
      <point x="817.32" y="145" type="line"/>
      <point x="787.471" y="109.352"/>
      <point x="740.291" y="90"/>
    </contour>
  </outline>
</glyph>
<glyph name="acutecomb" format="2">
  <advance width="287"/>
  <unicode hex="0301"/>
  <anchor x="139" y="700" name="top"/>
  <anchor x="123" y="500" name="_top"/>
  <outline>
    <contour>
      <point x="78" y="550" type="line"/>
      <point x="169" y="550" type="line"/>
      <point x="273" y="701" type="line"/>
      <point x="149" y="701" type="line"/>
    </contour>
  </outline>
</glyph>
<glyph name="dieresistonos" format="2">
  <advance width="333"/>
  <unicode hex="0385"/>
  <anchor x="166" y="688" name="topgr"/>
  <anchor x="166" y="500" name="_topgr"/>
  <outline>
    <contour>
      <point x="150" y="713" type="line"/>
      <point x="119" y="546" type="line"/>
      <point x="183" y="546" type="line"/>
      <point x="234" y="713" type="line"/>
    </contour>
    <contour>
      <point x="283.275" y="560.491" type="curve" smooth="yes"/>
      <point x="313.306" y="560.491"/>
      <point x="329.205" y="583.456"/>
      <point x="329.205" y="608.187" type="curve" smooth="yes"/>
      <point x="329.205" y="632.918"/>
      <point x="313.306" y="655"/>
      <point x="283.275" y="655" type="curve" smooth="yes"/>
      <point x="251.478" y="655"/>
      <point x="235.579" y="630.269"/>
      <point x="235.579" y="608.187" type="curve" smooth="yes"/>
      <point x="235.579" y="586.106"/>
      <point x="251.478" y="560.491"/>
    </contour>
    <contour>
      <point x="52.4912" y="560.491" type="curve" smooth="yes"/>
      <point x="82.5221" y="560.491"/>
      <point x="98.4207" y="583.456"/>
      <point x="98.4207" y="608.187" type="curve" smooth="yes"/>
      <point x="98.4207" y="632.918"/>
      <point x="82.5221" y="655"/>
      <point x="52.4912" y="655" type="curve" smooth="yes"/>
      <point x="20.6939" y="655"/>
      <point x="4.79521" y="630.269"/>
      <point x="4.79521" y="608.187" type="curve" smooth="yes"/>
      <point x="4.79521" y="586.106"/>
      <point x="20.6939" y="560.491"/>
    </contour>
  </outline>
</glyph>
<glyph name="Xi" format="2">
  <advance width="593"/>
  <unicode hex="039E"/>
  <outline>
    <contour>
      <point x="65" y="580" type="line"/>
      <point x="548" y="580" type="line"/>
      <point x="548" y="700" type="line"/>
      <point x="65" y="700" type="line"/>
    </contour>
    <contour>
      <point x="65" y="120" type="line"/>
      <point x="65" y="0" type="line"/>
      <point x="548" y="0" type="line"/>
      <point x="548" y="120" type="line"/>
    </contour>
    <contour>
      <point x="493" y="291" type="line"/>
      <point x="493" y="407" type="line"/>
      <point x="121" y="407" type="line"/>
      <point x="121" y="291" type="line"/>
    </contour>
  </outline>
</glyph>
<glyph name="alpha" format="2">
  <advance width="673"/>
  <unicode hex="03B1"/>
  <anchor x="310" y="520" name="topgr"/>
  <outline>
    <contour>
      <point x="261" y="-20" type="curve" smooth="yes"/>
      <point x="140" y="-20"/>
      <point x="50" y="80"/>
      <point x="50" y="250" type="curve" smooth="yes"/>
      <point x="50" y="420"/>
      <point x="139" y="520"/>
      <point x="268" y="520" type="curve" smooth="yes"/>
      <point x="388.193" y="520"/>
      <point x="486.89" y="432.1"/>
      <point x="544.592" y="296.014" type="curve" smooth="yes"/>
      <point x="580.026" y="212.448"/>
      <point x="600" y="110.711"/>
      <point x="600" y="0" type="curve"/>
      <point x="455" y="0" type="line"/>
      <point x="455" y="79.7016"/>
      <point x="455.87" y="192.464"/>
      <point x="432.466" y="279.565" type="curve" smooth="yes"/>
      <point x="412.41" y="354.204"/>
      <point x="374.529" y="410"/>
      <point x="303" y="410" type="curve" smooth="yes"/>
      <point x="234" y="410"/>
      <point x="196" y="357"/>
      <point x="196" y="249" type="curve" smooth="yes"/>
      <point x="196" y="144"/>
      <point x="232" y="90"/>
      <point x="304" y="90" type="curve" smooth="yes"/>
      <point x="387.238" y="90"/>
      <point x="424.287" y="163.651"/>
      <point x="440.777" y="259" type="curve" smooth="yes"/>
      <point x="453.805" y="334.33"/>
      <point x="454" y="423.204"/>
      <point x="454" y="500" type="curve"/>
      <point x="600" y="500" type="line"/>
      <point x="600" y="416.121"/>
      <point x="583.676" y="328.191"/>
      <point x="553.991" y="249" type="curve" smooth="yes"/>
      <point x="497.676" y="98.7743"/>
      <point x="393.273" y="-20"/>
    </contour>
  </outline>
</glyph>
<glyph name="iota" format="2">
  <advance width="310"/>
  <unicode hex="03B9"/>
  <anchor x="141" y="520" name="topgr"/>
  <outline>
    <contour>
      <point x="66" y="153" type="curve" smooth="yes"/>
      <point x="66" y="500" type="line"/>
      <point x="211" y="500" type="line"/>
      <point x="211" y="187" type="line" smooth="yes"/>
      <point x="211" y="125"/>
      <point x="220" y="110"/>
      <point x="267" y="110" type="curve"/>
      <point x="267" y="0" type="line"/>
      <point x="229" y="0" type="line" smooth="yes"/>
      <point x="110" y="0"/>
      <point x="66" y="47"/>
    </contour>
  </outline>
</glyph>
<glyph name="Kaisymbol" format="2">
  <advance width="670"/>
  <unicode hex="03CF"/>
  <outline>
    <contour>
      <point x="484" y="0" type="line"/>
      <point x="484" y="-71.71"/>
      <point x="432" y="-101"/>
      <point x="322" y="-101" type="curve" smooth="yes"/>
      <point x="220" y="-101"/>
      <point x="135" y="-75.6914"/>
      <point x="69" y="-19" type="curve"/>
      <point x="69" y="-119" type="line"/>
      <point x="125" y="-182"/>
      <point x="223" y="-221"/>
      <point x="346" y="-221" type="curve" smooth="yes"/>
      <point x="526" y="-221"/>
      <point x="653" y="-137"/>
      <point x="653" y="0" type="curve"/>
      <point x="536" y="17" type="line"/>
    </contour>
    <contour>
      <point x="68" y="700" type="line"/>
      <point x="68" y="0" type="line"/>
      <point x="213" y="0" type="line"/>
      <point x="213" y="700" type="line"/>
    </contour>
    <contour>
      <point x="337" y="421" type="line"/>
      <point x="111" y="421" type="line"/>
      <point x="100" y="299" type="line"/>
      <point x="325" y="299" type="line"/>
      <point x="484" y="0" type="line"/>
      <point x="653" y="0" type="line"/>
      <point x="441" y="367" type="line"/>
      <point x="649" y="700" type="line"/>
      <point x="498" y="700" type="line"/>
    </contour>
  </outline>
</glyph>
<glyph name="Tsecyr" format="2">
  <advance width="760"/>
  <unicode hex="0426"/>
  <outline>
    <contour>
      <point x="556" y="0" type="line" smooth="yes"/>
      <point x="627" y="0"/>
      <point x="619" y="-42"/>
      <point x="619" y="-140" type="curve"/>
      <point x="739" y="-140" type="line"/>
      <point x="739" y="96"/>
      <point x="707" y="120"/>
      <point x="607" y="120" type="curve"/>
      <point x="607" y="701" type="line"/>
      <point x="461" y="701" type="line"/>
      <point x="461" y="120" type="line"/>
      <point x="223" y="120" type="line"/>
      <point x="223" y="701" type="line"/>
      <point x="77" y="701" type="line"/>
      <point x="77" y="0" type="line"/>
    </contour>
  </outline>
</glyph>
<glyph name="Shacyr" format="2">
  <advance width="970"/>
  <unicode hex="0428"/>
  <outline>
    <contour>
      <point x="893" y="0" type="line"/>
      <point x="893" y="700" type="line"/>
      <point x="747" y="700" type="line"/>
      <point x="747" y="120" type="line"/>
      <point x="558" y="120" type="line"/>
      <point x="558" y="700" type="line"/>
      <point x="412" y="700" type="line"/>
      <point x="412" y="120" type="line"/>
      <point x="223" y="120" type="line"/>
      <point x="223" y="700" type="line"/>
      <point x="77" y="700" type="line"/>
      <point x="77" y="0" type="line"/>
    </contour>
  </outline>
</glyph>
<glyph name="Hardcyr" format="2">
  <advance width="735"/>
  <unicode hex="042A"/>
  <outline>
    <component base="Softcyr" xOffset="102"/>
    <contour>
      <point x="21" y="700" type="line"/>
      <point x="21" y="579" type="line"/>
      <point x="194" y="579" type="line"/>
      <point x="227" y="693" type="line"/>
      <point x="227" y="700" type="line"/>
    </contour>
  </outline>
</glyph>
<glyph name="Yucyr" format="2">
  <advance width="1090"/>
  <unicode hex="042E"/>
  <anchor x="545" y="719" name="top"/>
  <outline>
    <component base="O" xOffset="295"/>
    <component base="I" xOffset="-13"/>
    <contour>
      <point x="208" y="311" type="line"/>
      <point x="358" y="311" type="line"/>
      <point x="358" y="431" type="line"/>
      <point x="208" y="431" type="line"/>
    </contour>
  </outline>
</glyph>
<glyph name="zhecyr" format="2">
  <advance width="800"/>
  <unicode hex="0436"/>
  <anchor x="398" y="-20" name="bottom"/>
  <anchor x="400" y="520" name="top"/>
  <outline>
    <contour>
      <point x="327" y="500" type="line"/>
      <point x="327" y="0" type="line"/>
      <point x="472" y="0" type="line" name="ab01"/>
      <point x="472" y="500" type="line" name="av01"/>
    </contour>
    <contour>
      <point x="382" y="321" type="line" name="dv02"/>
      <point x="278" y="321" type="line" smooth="yes"/>
      <point x="223" y="321"/>
      <point x="209" y="346"/>
      <point x="203" y="396" type="curve"/>
      <point x="192" y="500" type="line"/>
      <point x="54" y="500" type="line" name="av02"/>
      <point x="71" y="337" type="line"/>
      <point x="82" y="253"/>
      <point x="126" y="211"/>
      <point x="206" y="211" type="curve" smooth="yes"/>
      <point x="382" y="211" type="line" name="dv01"/>
    </contour>
    <contour>
      <point x="124" y="247" type="line"/>
      <point x="16" y="0" type="line"/>
      <point x="161" y="0" type="line" name="ab02"/>
      <point x="263" y="235" type="line" name="iv01"/>
    </contour>
    <contour>
      <point x="418" y="211" type="line" name="dv01"/>
      <point x="594" y="211" type="line" smooth="yes"/>
      <point x="674" y="211"/>
      <point x="718" y="253"/>
      <point x="729" y="337" type="curve"/>
      <point x="746" y="500" type="line" name="av02"/>
      <point x="608" y="500" type="line"/>
      <point x="597" y="395" type="line"/>
      <point x="591" y="345"/>
      <point x="577" y="321"/>
      <point x="523" y="321" type="curve" smooth="yes"/>
      <point x="418" y="321" type="line" name="dv02"/>
    </contour>
    <contour>
      <point x="536" y="235" type="line" name="iv01"/>
      <point x="638" y="0" type="line" name="ab02"/>
      <point x="784" y="0" type="line"/>
      <point x="676" y="247" type="line"/>
    </contour>
  </outline>
</glyph>
<glyph name="shacyr" format="2">
  <advance width="879"/>
  <unicode hex="0448"/>
  <outline>
    <contour>
      <point x="809" y="0" type="line"/>
      <point x="809" y="500" type="line"/>
      <point x="664" y="500" type="line"/>
      <point x="664" y="111" type="line"/>
      <point x="512" y="111" type="line"/>
      <point x="512" y="500" type="line"/>
      <point x="367" y="500" type="line"/>
      <point x="367" y="111" type="line"/>
      <point x="215" y="111" type="line"/>
      <point x="215" y="500" type="line"/>
      <point x="70" y="500" type="line"/>
      <point x="70" y="0" type="line"/>
    </contour>
  </outline>
</glyph>
<glyph name="softcyr" format="2">
  <advance width="536"/>
  <unicode hex="044C"/>
  <anchor x="268" y="-20" name="bottom"/>
  <anchor x="268" y="520" name="top"/>
  <outline>
    <contour>
      <point x="111" y="332" type="line"/>
      <point x="111" y="222" type="line"/>
      <point x="263" y="222" type="line" smooth="yes"/>
      <point x="317" y="222"/>
      <point x="341" y="201"/>
      <point x="341" y="167" type="curve" smooth="yes"/>
      <point x="341" y="131"/>
      <point x="317" y="110"/>
      <point x="263" y="110" type="curve" smooth="yes"/>
      <point x="215" y="110" type="line"/>
      <point x="215" y="500" type="line"/>
      <point x="70" y="500" type="line"/>
      <point x="70" y="0" type="line"/>
      <point x="293" y="0" type="line" smooth="yes"/>
      <point x="412" y="0"/>
      <point x="486" y="66"/>
      <point x="486" y="171" type="curve" smooth="yes"/>
      <point x="486" y="272"/>
      <point x="413" y="332"/>
      <point x="292" y="332" type="curve" smooth="yes"/>
    </contour>
  </outline>
</glyph>
<glyph name="njecyr" format="2">
  <advance width="830"/>
  <unicode hex="045A"/>
  <outline>
    <contour>
      <point x="215" y="0" type="line"/>
      <point x="215" y="205" type="line"/>
      <point x="375" y="205" type="line"/>
      <point x="375" y="0" type="line"/>
      <point x="520" y="0" type="line"/>
      <point x="520" y="500" type="line"/>
      <point x="375" y="500" type="line"/>
      <point x="375" y="315" type="line"/>
      <point x="215" y="315" type="line"/>
      <point x="215" y="500" type="line"/>
      <point x="70" y="500" type="line"/>
      <point x="70" y="0" type="line"/>
    </contour>
    <contour>
      <point x="453" y="315" type="line"/>
      <point x="453" y="205" type="line"/>
      <point x="577" y="205" type="line" smooth="yes"/>
      <point x="615" y="205"/>
      <point x="635" y="190.471"/>
      <point x="635" y="160.294" type="curve" smooth="yes"/>
      <point x="635" y="127.882"/>
      <point x="613" y="110"/>
      <point x="575" y="110" type="curve" smooth="yes"/>
      <point x="518" y="110" type="line"/>
      <point x="518" y="500" type="line"/>
      <point x="387" y="500" type="line"/>
      <point x="387" y="0" type="line"/>
      <point x="597" y="0" type="line" smooth="yes"/>
      <point x="717" y="0"/>
      <point x="780" y="56.8033"/>
      <point x="780" y="164.213" type="curve" smooth="yes"/>
      <point x="780" y="266.459"/>
      <point x="722" y="315"/>
      <point x="596" y="315" type="curve" smooth="yes"/>
    </contour>
  </outline>
</glyph>
<glyph name="Geupcyr" format="2">
  <advance width="557"/>
  <unicode hex="0490"/>
  <outline>
    <contour>
      <point x="77" y="700" type="line"/>
      <point x="77" y="0" type="line"/>
      <point x="223" y="0" type="line"/>
      <point x="223" y="580" type="line"/>
      <point x="333" y="580" type="line" smooth="yes"/>
      <point x="497" y="580"/>
      <point x="537" y="639"/>
      <point x="537" y="814" type="curve"/>
      <point x="417" y="814" type="line"/>
      <point x="417" y="720"/>
      <point x="400" y="700"/>
      <point x="345" y="700" type="curve" smooth="yes"/>
    </contour>
  </outline>
</glyph>
<glyph name="daggerdbl" format="2">
  <advance width="722"/>
  <unicode hex="2021"/>
  <outline>
    <contour>
      <point x="284" y="-222" type="line"/>
      <point x="420" y="-222" type="line"/>
      <point x="412" y="5" type="line"/>
      <point x="650" y="-9" type="line"/>
      <point x="650" y="86" type="line"/>
      <point x="410" y="72" type="line"/>
      <point x="385" y="237" type="line"/>
      <point x="410" y="402" type="line"/>
      <point x="650" y="388" type="line"/>
      <point x="650" y="483" type="line"/>
      <point x="412" y="469" type="line"/>
      <point x="420" y="696" type="line"/>
      <point x="284" y="696" type="line"/>
      <point x="293" y="469" type="line"/>
      <point x="50" y="483" type="line"/>
      <point x="50" y="388" type="line"/>
      <point x="295" y="402" type="line"/>
      <point x="320" y="237" type="line"/>
      <point x="295" y="72" type="line"/>
      <point x="50" y="86" type="line"/>
      <point x="50" y="-9" type="line"/>
      <point x="293" y="5" type="line"/>
    </contour>
  </outline>
</glyph>
<glyph name="ruble" format="2">
  <advance width="720"/>
  <unicode hex="20BD"/>
  <outline>
    <contour>
      <point x="301" y="0" type="line"/>
      <point x="301" y="580" type="line"/>
      <point x="409" y="580" type="line" smooth="yes"/>
      <point x="494" y="580"/>
      <point x="535" y="535"/>
      <point x="535" y="464" type="curve" smooth="yes"/>
      <point x="535" y="393"/>
      <point x="493" y="347"/>
      <point x="409" y="347" type="curve" smooth="yes"/>
      <point x="45" y="347" type="line"/>
      <point x="45" y="226" type="line"/>
      <point x="410" y="226" type="line" smooth="yes"/>
      <point x="578" y="226"/>
      <point x="681" y="315"/>
      <point x="681" y="460" type="curve" smooth="yes"/>
      <point x="681" y="606"/>
      <point x="576" y="700"/>
      <point x="411" y="700" type="curve" smooth="yes"/>
      <point x="155" y="700" type="line"/>
      <point x="155" y="0" type="line"/>
    </contour>
    <contour>
      <point x="45" y="152" type="line"/>
      <point x="45" y="92" type="line"/>
      <point x="620" y="92" type="line"/>
      <point x="620" y="152" type="line"/>
    </contour>
  </outline>
</glyph>
<glyph name="C.ss10" format="2">
  <advance width="735"/>
  <anchor x="407" y="-19" name="bottom"/>
  <anchor x="387" y="719" name="top"/>
  <outline>
    <contour>
      <point x="405" y="-20" type="curve" smooth="yes"/>
      <point x="522" y="-20"/>
      <point x="622" y="27"/>
      <point x="692" y="117" type="curve"/>
      <point x="653" y="255" type="line"/>
      <point x="574" y="134.221"/>
      <point x="497" y="100"/>
      <point x="409" y="100" type="curve" smooth="yes"/>
      <point x="270" y="100"/>
      <point x="188" y="185.341"/>
      <point x="188" y="347.992" type="curve" smooth="yes"/>
      <point x="188" y="500.602"/>
      <point x="259" y="600"/>
      <point x="401" y="600" type="curve" smooth="yes"/>
      <point x="485" y="600"/>
      <point x="562" y="565.779"/>
      <point x="644" y="445" type="curve"/>
      <point x="683" y="583" type="line"/>
      <point x="613" y="673"/>
      <point x="515" y="720"/>
      <point x="395" y="720" type="curve" smooth="yes"/>
      <point x="184" y="720"/>
      <point x="43" y="573"/>
      <point x="43" y="357" type="curve" smooth="yes"/>
      <point x="43" y="137"/>
      <point x="190" y="-20"/>
    </contour>
  </outline>
</glyph>
<glyph name="Eng.ss09" format="2">
  <advance width="752"/>
  <anchor x="383" y="719" name="top"/>
  <anchor x="400" y="-186" name="bottom"/>
  <outline>
    <contour>
      <point x="222.5" y="0" type="line" name="ab01"/>
      <point x="222.5" y="468" type="line" name="iv01"/>
      <point x="538.5" y="0" type="line" name="ab02"/>
      <point x="674.938" y="129.137" type="line"/>
      <point x="674.938" y="700" type="line" name="at01"/>
      <point x="529.875" y="700" type="line"/>
      <point x="530.438" y="232" type="line" name="iv02"/>
      <point x="213.481" y="700" type="line" name="at02"/>
      <point x="77.5" y="700" type="line"/>
      <point x="77.5" y="0" type="line"/>
    </contour>
    <contour>
      <point x="206.25" y="-15" type="line"/>
      <point x="233.198" y="-165"/>
      <point x="300.996" y="-230"/>
      <point x="437.545" y="-230" type="curve" smooth="yes"/>
      <point x="602.741" y="-230"/>
      <point x="675.485" y="-135"/>
      <point x="675.312" y="42" type="curve" smooth="yes"/>
      <point x="674.875" y="490" type="line"/>
      <point x="530.312" y="490" type="line"/>
      <point x="530.312" y="45.2588" type="line" smooth="yes"/>
      <point x="530.312" y="-73.9399"/>
      <point x="497.175" y="-110"/>
      <point x="436.275" y="-110" type="curve" smooth="yes"/>
      <point x="385.225" y="-110"/>
      <point x="359.253" y="-84"/>
      <point x="349.25" y="-15" type="curve"/>
    </contour>
  </outline>
</glyph>
<glyph name="G.ss15" format="2">
  <advance width="767"/>
  <anchor x="393" y="-19" name="bottom"/>
  <anchor x="393" y="719" name="top"/>
  <outline>
    <contour>
      <point x="388" y="720" type="curve" smooth="yes"/>
      <point x="502" y="720"/>
      <point x="593" y="678"/>
      <point x="672" y="585" type="curve"/>
      <point x="662" y="490" type="line"/>
      <point x="578" y="568"/>
      <point x="501" y="600"/>
      <point x="406" y="600" type="curve" smooth="yes"/>
      <point x="251" y="600"/>
      <point x="188" y="516"/>
      <point x="188" y="351" type="curve" smooth="yes"/>
      <point x="188" y="183"/>
      <point x="253" y="101"/>
      <point x="391" y="101" type="curve" smooth="yes"/>
      <point x="514" y="101"/>
      <point x="577" y="167"/>
      <point x="577" y="309" type="curve"/>
      <point x="577" y="264" type="line"/>
      <point x="377" y="264" type="line"/>
      <point x="377" y="384" type="line"/>
      <point x="724" y="384" type="line"/>
      <point x="724" y="330" type="line" smooth="yes"/>
      <point x="724" y="119"/>
      <point x="586" y="-19"/>
      <point x="383" y="-19" type="curve" smooth="yes"/>
      <point x="174" y="-19"/>
      <point x="43" y="126"/>
      <point x="43" y="349" type="curve" smooth="yes"/>
      <point x="43" y="572"/>
      <point x="175" y="720"/>
    </contour>
  </outline>
</glyph>
<glyph name="Iacute_J.loclNLD.liga" format="2">
  <advance width="620"/>
  <outline>
    <contour>
      <point x="66" y="122" type="line"/>
      <point x="133" y="25"/>
      <point x="211" y="-20"/>
      <point x="320" y="-20" type="curve" smooth="yes" name="dv01"/>
      <point x="470" y="-20"/>
      <point x="556" y="64"/>
      <point x="556" y="222" type="curve" smooth="yes"/>
      <point x="556" y="700" type="line" name="at01"/>
      <point x="410" y="700" type="line"/>
      <point x="410" y="239" type="line" smooth="yes"/>
      <point x="410" y="151"/>
      <point x="382" y="100"/>
      <point x="312" y="100" type="curve" smooth="yes" name="dv02"/>
      <point x="256" y="100"/>
      <point x="204" y="132"/>
      <point x="151" y="207" type="curve"/>
    </contour>
    <contour>
      <point x="438" y="769" type="line"/>
      <point x="529" y="769" type="line"/>
      <point x="633" y="920" type="line"/>
      <point x="509" y="920" type="line"/>
    </contour>
    <contour>
      <point x="211" y="280.104" type="line"/>
      <point x="211" y="700" type="line"/>
      <point x="66" y="700" type="line"/>
      <point x="66" y="280.104" type="line"/>
    </contour>
    <contour>
      <point x="93" y="770" type="line"/>
      <point x="184" y="770" type="line"/>
      <point x="288" y="921" type="line"/>
      <point x="164" y="921" type="line"/>
    </contour>
  </outline>
</glyph>
<glyph name="J.ss12" format="2">
  <advance width="500"/>
  <anchor x="365" y="719" name="top"/>
  <anchor x="207" y="-20" name="bottom"/>
  <outline>
    <contour>
      <point x="208.772" y="-20" type="curve" smooth="yes"/>
      <point x="354.597" y="-20"/>
      <point x="435.5" y="57"/>
      <point x="435.5" y="232" type="curve" smooth="yes"/>
      <point x="435.5" y="700" type="line"/>
      <point x="290.5" y="700" type="line"/>
      <point x="290.5" y="227" type="line" smooth="yes"/>
      <point x="290.5" y="124"/>
      <point x="260.442" y="100"/>
      <point x="181.29" y="100" type="curve" smooth="yes"/>
      <point x="145.22" y="100"/>
      <point x="94.1216" y="105"/>
      <point x="31" y="130" type="curve"/>
      <point x="19" y="31" type="line"/>
      <point x="65.9436" y="5"/>
      <point x="119.879" y="-20"/>
    </contour>
  </outline>
</glyph>
<glyph name="Zecyr.ss10" format="2">
  <advance width="598"/>
  <anchor x="299" y="-20" name="bottom"/>
  <anchor x="299" y="719" name="top"/>
  <outline>
    <contour>
      <point x="310.332" y="100" type="curve" smooth="yes"/>
      <point x="241.228" y="100"/>
      <point x="171.123" y="134.221"/>
      <point x="89" y="255" type="curve"/>
      <point x="50" y="117" type="line"/>
      <point x="119.932" y="27"/>
      <point x="217.838" y="-20"/>
      <point x="320.738" y="-20" type="curve" smooth="yes"/>
      <point x="460.603" y="-20"/>
      <point x="567.5" y="67"/>
      <point x="567.5" y="196" type="curve" smooth="yes"/>
      <point x="567.5" y="294"/>
      <point x="505.661" y="355"/>
      <point x="376" y="371" type="curve"/>
      <point x="493" y="399"/>
      <point x="535" y="451"/>
      <point x="535" y="542" type="curve" smooth="yes"/>
      <point x="535" y="652"/>
      <point x="445" y="720"/>
      <point x="299" y="720" type="curve" smooth="yes"/>
      <point x="210" y="720"/>
      <point x="120" y="673"/>
      <point x="50" y="583" type="curve"/>
      <point x="89" y="445" type="line"/>
      <point x="171" y="565.779"/>
      <point x="241" y="600"/>
      <point x="310" y="600" type="curve" smooth="yes"/>
      <point x="363" y="600"/>
      <point x="390" y="573.851"/>
      <point x="390" y="524.571" type="curve" smooth="yes"/>
      <point x="390" y="474.286"/>
      <point x="363" y="424"/>
      <point x="271" y="424" type="curve"/>
      <point x="271" y="304" type="line"/>
      <point x="386.381" y="304"/>
      <point x="422.5" y="258.778"/>
      <point x="422.5" y="199.488" type="curve" smooth="yes"/>
      <point x="422.5" y="140.197"/>
      <point x="388.449" y="100"/>
    </contour>
  </outline>
</glyph>
<glyph name="ae.ss02" format="2">
  <advance width="904"/>
  <outline>
    <contour>
      <point x="273.44" y="410" type="curve" smooth="yes" name="sv01"/>
      <point x="223.46" y="410"/>
      <point x="176.42" y="390.64"/>
      <point x="146.04" y="355" type="curve"/>
      <point x="69.59" y="433" type="line"/>
      <point x="118.6" y="490"/>
      <point x="195.04" y="520"/>
      <point x="289.12" y="520" type="curve" smooth="yes" name="at01"/>
      <point x="364.85" y="520"/>
      <point x="418.04" y="500.34"/>
      <point x="452.05" y="468.94" type="curve"/>
      <point x="495.39" y="502.33"/>
      <point x="551.98" y="520"/>
      <point x="617.85" y="520" type="curve" smooth="yes" name="at01"/>
      <point x="775.96" y="520"/>
      <point x="866.17" y="419"/>
      <point x="866.17" y="222" type="curve" name="dv03"/>
      <point x="502.42" y="222" type="line" name="sv04"/>
      <point x="502.42" y="134.33"/>
      <point x="544.78" y="90"/>
      <point x="630.48" y="90" type="curve" smooth="yes" name="sv01"/>
      <point x="687.29" y="90"/>
      <point x="734.47" y="109.35"/>
      <point x="764.32" y="145" type="curve"/>
      <point x="839.98" y="67" type="line"/>
      <point x="791.48" y="10"/>
      <point x="714.85" y="-20"/>
      <point x="624.64" y="-20" type="curve" smooth="yes" name="at01"/>
      <point x="520.32" y="-20"/>
      <point x="443.43" y="20.12"/>
      <point x="399.91" y="89.95" type="curve"/>
      <point x="359.035" y="18.2514"/>
      <point x="286.2" y="-20"/>
      <point x="215.088" y="-20" type="curve" smooth="yes"/>
      <point x="119.58" y="-20"/>
      <point x="50" y="49"/>
      <point x="50" y="146" type="curve" smooth="yes"/>
      <point x="50" y="243"/>
      <point x="119.58" y="312"/>
      <point x="219.54" y="312" type="curve" smooth="yes"/>
      <point x="282.32" y="312"/>
      <point x="331.65" y="284.47"/>
      <point x="357.78" y="235.85" type="curve" name="sv03"/>
      <point x="357.78" y="330.8" type="line" smooth="yes"/>
      <point x="357.78" y="382.93"/>
      <point x="332.24" y="410"/>
    </contour>
    <contour>
      <point x="722.61" y="322" type="line" name="dv04"/>
      <point x="713.95" y="376.62"/>
      <point x="675.51" y="410"/>
      <point x="615.91" y="410" type="curve" smooth="yes" name="sv01"/>
      <point x="555.36" y="410"/>
      <point x="511.15" y="376.62"/>
      <point x="502.42" y="322" type="curve" name="sv02"/>
    </contour>
    <contour>
      <point x="193.08" y="146" type="curve" smooth="yes"/>
      <point x="193.08" y="111"/>
      <point x="216.6" y="90"/>
      <point x="258.74" y="90" type="curve" smooth="yes"/>
      <point x="305.33" y="90"/>
      <point x="347.35" y="115.54"/>
      <point x="357.75" y="157.24" type="curve"/>
      <point x="340.45" y="184.69"/>
      <point x="304.45" y="202"/>
      <point x="262.66" y="202" type="curve" smooth="yes"/>
      <point x="217.58" y="202"/>
      <point x="193.08" y="182"/>
    </contour>
  </outline>
</glyph>
<glyph name="b.ss11" format="2">
  <advance width="629"/>
  <anchor x="345" y="-20" name="bottom"/>
  <anchor x="330" y="750" name="top"/>
  <outline>
    <contour>
      <point x="208" y="86" type="line"/>
      <point x="208" y="700" type="line"/>
      <point x="63" y="700" type="line"/>
      <point x="63" y="-10" type="line"/>
    </contour>
    <contour>
      <point x="433.5" y="255.517" type="curve" smooth="yes"/>
      <point x="433.5" y="148.182"/>
      <point x="398.422" y="90"/>
      <point x="332.276" y="90" type="curve" smooth="yes"/>
      <point x="260.116" y="90"/>
      <point x="208" y="158.213"/>
      <point x="208" y="256.52" type="curve" smooth="yes"/>
      <point x="208" y="331.755"/>
      <point x="251.096" y="410"/>
      <point x="331.273" y="410" type="curve" smooth="yes"/>
      <point x="398.422" y="410"/>
      <point x="433.5" y="357.837"/>
    </contour>
    <contour>
      <point x="176" y="255" type="curve" smooth="yes"/>
      <point x="176" y="85"/>
      <point x="241.918" y="-20"/>
      <point x="366.999" y="-20" type="curve" smooth="yes"/>
      <point x="495.603" y="-20"/>
      <point x="578.5" y="91"/>
      <point x="578.5" y="255" type="curve" smooth="yes"/>
      <point x="578.5" y="416"/>
      <point x="498.599" y="520"/>
      <point x="366.504" y="520" type="curve" smooth="yes"/>
      <point x="240.919" y="520"/>
      <point x="176" y="426"/>
    </contour>
  </outline>
</glyph>
<glyph name="c.ss09" format="2">
  <advance width="611"/>
  <anchor x="312" y="520" name="top"/>
  <anchor x="332" y="-20" name="bottom"/>
  <outline>
    <contour>
      <point x="315" y="-20" type="curve" smooth="yes"/>
      <point x="450" y="-20"/>
      <point x="548" y="47"/>
      <point x="560" y="167" type="curve"/>
      <point x="425" y="167" type="line"/>
      <point x="421.987" y="123"/>
      <point x="382.817" y="90"/>
      <point x="323.561" y="90" type="curve" smooth="yes"/>
      <point x="241.204" y="90"/>
      <point x="194" y="146.352"/>
      <point x="194" y="246.981" type="curve" smooth="yes"/>
      <point x="194" y="349.623"/>
      <point x="242.207" y="410"/>
      <point x="322.552" y="410" type="curve" smooth="yes"/>
      <point x="381.806" y="410"/>
      <point x="420.974" y="377.835"/>
      <point x="427" y="333" type="curve"/>
      <point x="562" y="333" type="line"/>
      <point x="542" y="457.667"/>
      <point x="449" y="520"/>
      <point x="316" y="520" type="curve" smooth="yes"/>
      <point x="147" y="520"/>
      <point x="49" y="417"/>
      <point x="49" y="255" type="curve" smooth="yes"/>
      <point x="49" y="85"/>
      <point x="145" y="-20"/>
    </contour>
  </outline>
</glyph>
<glyph name="cent.ss09" format="2">
  <advance width="611"/>
  <outline>
    <component base="c.ss09" yOffset="101"/>
    <contour>
      <point x="344" y="610" type="line"/>
      <point x="344" y="730" type="line"/>
      <point x="294" y="730" type="line"/>
      <point x="294" y="610" type="line"/>
    </contour>
    <contour>
      <point x="295" y="89" type="line"/>
      <point x="295" y="-31" type="line"/>
      <point x="343" y="-31" type="line"/>
      <point x="343" y="90" type="line"/>
    </contour>
  </outline>
</glyph>
<glyph name="g.ss12" format="2">
  <advance width="635"/>
  <anchor x="308" y="-220" name="bottom"/>
  <anchor x="317" y="520" name="top"/>
  <outline>
    <contour>
      <point x="449" y="255" type="curve" smooth="yes"/>
      <point x="449" y="423"/>
      <point x="381" y="520"/>
      <point x="263" y="520" type="curve" smooth="yes" name="at01"/>
      <point x="124" y="520"/>
      <point x="50" y="411"/>
      <point x="50" y="255" type="curve" smooth="yes"/>
      <point x="50" y="99"/>
      <point x="133" y="-20"/>
      <point x="269" y="-20" type="curve" smooth="yes" name="dv01"/>
      <point x="386" y="-20"/>
      <point x="449" y="89"/>
    </contour>
    <contour>
      <point x="196" y="255.517" type="curve" smooth="yes"/>
      <point x="196" y="350.815"/>
      <point x="238" y="410"/>
      <point x="307" y="410" type="curve" smooth="yes" name="sv01"/>
      <point x="374" y="410"/>
      <point x="417" y="348.809"/>
      <point x="417" y="256.52" type="curve" smooth="yes"/>
      <point x="417" y="153.197"/>
      <point x="375" y="90"/>
      <point x="306" y="90" type="curve" smooth="yes" name="dv02"/>
      <point x="240" y="90"/>
      <point x="196" y="155.204"/>
    </contour>
    <contour>
      <point x="274" y="-110" type="curve" smooth="yes"/>
      <point x="205" y="-110"/>
      <point x="163" y="-91"/>
      <point x="83" y="-37" type="curve"/>
      <point x="76" y="-121" type="line"/>
      <point x="129" y="-186"/>
      <point x="200" y="-220"/>
      <point x="283" y="-220" type="curve" smooth="yes"/>
      <point x="470" y="-220"/>
      <point x="562" y="-137"/>
      <point x="562" y="32" type="curve" smooth="yes"/>
      <point x="562" y="500" type="line"/>
      <point x="417" y="500" type="line"/>
      <point x="417" y="34" type="line" smooth="yes"/>
      <point x="417" y="-56"/>
      <point x="371" y="-110"/>
    </contour>
  </outline>
</glyph>
<glyph name="minus.case" format="2">
  <advance width="566"/>
  <outline>
    <contour>
      <point x="50" y="403" type="line"/>
      <point x="516" y="403" type="line"/>
      <point x="516" y="437" type="line"/>
      <point x="50" y="437" type="line"/>
    </contour>
  </outline>
</glyph>
<glyph name="s.ss12" format="2">
  <advance width="510"/>
  <anchor x="245" y="520" name="top"/>
  <anchor x="265" y="-20" name="bottom"/>
  <outline>
    <contour>
      <point x="182" y="364.339" type="curve" smooth="yes"/>
      <point x="182" y="390"/>
      <point x="203" y="410"/>
      <point x="253" y="410" type="curve" smooth="yes"/>
      <point x="306" y="410"/>
      <point x="365" y="388"/>
      <point x="435" y="337" type="curve"/>
      <point x="442" y="421" type="line"/>
      <point x="398" y="482"/>
      <point x="320" y="520"/>
      <point x="230" y="520" type="curve" smooth="yes"/>
      <point x="110" y="520"/>
      <point x="37" y="453"/>
      <point x="37" y="348.172" type="curve" smooth="yes"/>
      <point x="37" y="240.214"/>
      <point x="132.304" y="217.869"/>
      <point x="211.708" y="199.253" type="curve" smooth="yes"/>
      <point x="268.407" y="185.959"/>
      <point x="317" y="174.567"/>
      <point x="317" y="135.262" type="curve" smooth="yes"/>
      <point x="317" y="110"/>
      <point x="297" y="90"/>
      <point x="244" y="90" type="curve" smooth="yes"/>
      <point x="180" y="90"/>
      <point x="101" y="120"/>
      <point x="44" y="174" type="curve"/>
      <point x="37" y="91" type="line"/>
      <point x="95" y="20"/>
      <point x="162" y="-20"/>
      <point x="264" y="-20" type="curve" smooth="yes"/>
      <point x="393" y="-20"/>
      <point x="462" y="45"/>
      <point x="462" y="148.833" type="curve" smooth="yes"/>
      <point x="462" y="259.693"/>
      <point x="365.526" y="282.443"/>
      <point x="285.835" y="301.235" type="curve" smooth="yes"/>
      <point x="229.763" y="314.458"/>
      <point x="182" y="325.721"/>
    </contour>
  </outline>
</glyph>
<glyph name="two.ss12" format="2">
  <advance width="612"/>
  <outline>
    <contour>
      <point x="47" y="120" type="line"/>
      <point x="47" y="0" type="line"/>
      <point x="566" y="0" type="line"/>
      <point x="566" y="120" type="line"/>
    </contour>
    <contour>
      <point x="305" y="600" type="curve" smooth="yes"/>
      <point x="381" y="600"/>
      <point x="421" y="562.2"/>
      <point x="421" y="478.582" type="curve" smooth="yes"/>
      <point x="421" y="354.873"/>
      <point x="332" y="285"/>
      <point x="47" y="206" type="curve"/>
      <point x="47" y="84" type="line"/>
      <point x="407" y="153"/>
      <point x="566" y="279.956"/>
      <point x="566" y="486.529" type="curve" smooth="yes"/>
      <point x="566" y="639.307"/>
      <point x="479" y="720"/>
      <point x="333" y="720" type="curve" smooth="yes"/>
      <point x="223" y="720"/>
      <point x="137" y="678"/>
      <point x="63" y="585" type="curve"/>
      <point x="73" y="490" type="line"/>
      <point x="155" y="568"/>
      <point x="231" y="600"/>
    </contour>
  </outline>
</glyph>
<glyph name="u.ss05" format="2">
  <advance width="600"/>
  <anchor x="300" y="-20" name="bottom"/>
  <anchor x="300" y="520" name="top"/>
  <anchor x="522" y="-2" name="ogonek"/>
  <outline>
    <contour>
      <point x="398" y="213" type="line"/>
      <point x="382" y="283" type="line"/>
      <point x="382" y="159.359"/>
      <point x="346" y="90"/>
      <point x="281" y="90" type="curve" smooth="yes"/>
      <point x="233" y="90"/>
      <point x="211" y="128.093"/>
      <point x="211" y="212.298" type="curve" smooth="yes"/>
      <point x="211" y="500" type="line"/>
      <point x="66" y="500" type="line"/>
      <point x="66" y="196" type="line" smooth="yes"/>
      <point x="66" y="51"/>
      <point x="124" y="-20"/>
      <point x="232" y="-20" type="curve" smooth="yes"/>
      <point x="322" y="-20"/>
      <point x="373" y="30"/>
      <point x="400" y="130" type="curve"/>
    </contour>
    <contour>
      <point x="527" y="500" type="line"/>
      <point x="382" y="500" type="line"/>
      <point x="382" y="0" type="line"/>
      <point x="527" y="0" type="line"/>
    </contour>
  </outline>
</glyph>
